
<svg xmlns="http://www.w3.org/2000/svg" version="1.1" xmlns:xlink="http://www.w3.org/1999/xlink" preserveAspectRatio="none" x="0px" y="0px" width="256px" height="256px" viewBox="0 0 256 256">
<defs>
<g id="Layer0_0_FILL">
<path fill="#666666" stroke="none" d="
M 244.35 59.4
L 121.65 92.9 121.65 246.3 244.35 199.9 244.35 59.4 Z"/>

<path fill="#CCCCCC" stroke="none" d="
M 14.35 46.55
L 121.65 92.9 244.35 59.4 137.1 14.3 14.35 46.55 Z"/>

<path fill="#999999" stroke="none" d="
M 14.35 46.55
L 14.35 193.45 121.65 246.3 121.65 92.9 14.35 46.55 Z"/>
</g>

<path id="Layer0_0_1_STROKES" stroke="#000000" stroke-width="1" stroke-linejoin="round" stroke-linecap="round" fill="none" d="
M 14.35 46.55
L 14.35 193.45 121.65 246.3 121.65 92.9 14.35 46.55 137.1 14.3 244.35 59.4 244.35 199.9 121.65 246.3
M 121.65 92.9
L 244.35 59.4"/>
</defs>

<g transform="matrix( 1, 0, 0, 1, 0,0) ">
<use xlink:href="#Layer0_0_FILL"/>

<use xlink:href="#Layer0_0_1_STROKES"/>
</g>
</svg>
