
<svg xmlns="http://www.w3.org/2000/svg" version="1.1" xmlns:xlink="http://www.w3.org/1999/xlink" preserveAspectRatio="none" x="0px" y="0px" width="256px" height="256px" viewBox="0 0 256 256">
<defs>
<radialGradient id="Gradient_1" gradientUnits="userSpaceOnUse" cx="0" cy="0" r="204.775" fx="0" fy="0" gradientTransform="matrix( 1, 0, 0, 1.0893663777316567, 80.9,44.35) " spreadMethod="pad">
<stop  offset="0%" stop-color="#FFFFFF"/>

<stop  offset="100%" stop-color="#222222"/>
</radialGradient>

<radialGradient id="Gradient_2" gradientUnits="userSpaceOnUse" cx="0" cy="0" r="33.95" fx="0" fy="0" gradientTransform="matrix( 1, 0, 0, 1.0894698085419734, 77.75,66.35) " spreadMethod="pad">
<stop  offset="0%" stop-color="#FFFFFF"/>

<stop  offset="100%" stop-color="#000000"/>
</radialGradient>

<radialGradient id="Gradient_3" gradientUnits="userSpaceOnUse" cx="0" cy="0" r="32.86250000000001" fx="0" fy="0" gradientTransform="matrix( 0.9999999999999998, 0, 0, 1.0893875998478506, 164.1,66.35) " spreadMethod="pad">
<stop  offset="0%" stop-color="#FFFFFF"/>

<stop  offset="100%" stop-color="#000000"/>
</radialGradient>

<g id="Layer0_0_FILL">
<path fill="url(#Gradient_1)" stroke="none" d="
M 212.6 85.6
Q 218.85 70.6 212.6 54.3 198.1 20.25 178 10.2 162 0 144.7 4.25 140.65 5.05 140.55 11.6 140.8 19.85 138.1 27.4 134.7 36.8 130.95 39.1 129.85 39.75 128.75 39.85 128.4 39.85 128.05 39.85 127.7 39.85 127.35 39.85 122.3 39.5 117.9 27.4 115.2 19.85 115.45 11.6 115.4 5.05 111.3 4.25 94 0 78.05 10.2 57.95 20.25 43.4 54.3 37.15 70.6 43.4 85.6 39.6 95.7 33.25 91.75 34 79.25 26.5 75.75 8.45 66.9 3.7 83.45 1.25 100.85 7.6 114.55 20.15 130.05 36.65 126.1 48.8 115.85 47.6 103.05 57.7 127.2 74.05 140.15 89.35 148.25 92.4 156.45 95 201.2 92.4 235.5 92.4 251.15 104.15 253
L 151.85 253
Q 163.6 251.15 163.6 235.5 161 201.2 163.6 156.45 166.65 148.25 181.95 140.15 198.35 127.2 208.4 103.05 207.2 115.85 219.35 126.1 235.85 130.05 248.45 114.55 254.75 100.85 252.3 83.45 247.6 66.9 229.5 75.75 222 79.25 222.75 91.75 216.4 95.7 212.6 85.6
M 193.2 73.6
Q 193.2 83.75 186.45 91.1 179.65 98.45 170.4 98.45 161.1 98.45 154.4 91.1 147.65 83.75 147.65 73.6 147.65 63.5 154.4 56.15 161.1 48.85 170.4 48.85 179.65 48.85 186.45 56.15 193.2 63.5 193.2 73.6
M 108.35 73.6
Q 108.35 83.75 101.6 91.1 94.95 98.45 85.65 98.45 76.35 98.45 69.6 91.1 62.85 83.75 62.85 73.6 62.85 63.5 69.6 56.15 76.35 48.85 85.65 48.85 94.95 48.85 101.6 56.15 108.35 63.5 108.35 73.6
M 130.95 156.45
Q 129.75 156.45 128.75 156.45
L 127.35 156.45
Q 126.55 156.45 125.5 156.45 126.55 156.45 127.35 156.45
L 128.75 156.45
Q 129.75 156.45 130.95 156.45 131.25 156.45 131.6 156.45 139.2 156.45 144.25 150 150.2 144.5 150.2 136.2 150.2 144.5 144.25 150 139.2 156.45 131.6 156.45 131.25 156.45 130.95 156.45
M 146.8 205.15
Q 149.35 212.3 146.8 219.85 139.7 226.1 130.95 227.75 129.85 227.9 128.75 228.05 128.4 228.05 128.05 228.15 127.7 228.05 127.35 228.05 117.25 226.85 109.2 219.85 105.85 212.15 109.2 205.15 118.15 200.45 127.35 199.8 127.7 199.8 128.05 199.8 128.4 199.8 128.75 199.8 129.85 199.9 130.95 200.05 138.95 201 146.8 205.15 Z"/>

<path fill="url(#Gradient_2)" stroke="none" d="
M 101.6 91.1
Q 108.35 83.75 108.35 73.6 108.35 63.5 101.6 56.15 94.95 48.85 85.65 48.85 76.35 48.85 69.6 56.15 62.85 63.5 62.85 73.6 62.85 83.75 69.6 91.1 76.35 98.45 85.65 98.45 94.95 98.45 101.6 91.1 Z"/>

<path fill="url(#Gradient_3)" stroke="none" d="
M 186.45 91.1
Q 193.2 83.75 193.2 73.6 193.2 63.5 186.45 56.15 179.65 48.85 170.4 48.85 161.1 48.85 154.4 56.15 147.65 63.5 147.65 73.6 147.65 83.75 154.4 91.1 161.1 98.45 170.4 98.45 179.65 98.45 186.45 91.1 Z"/>
</g>

<path id="Layer0_0_1_STROKES" stroke="#000000" stroke-width="1" stroke-linejoin="round" stroke-linecap="round" fill="none" d="
M 193.2 73.6
Q 193.2 83.75 186.45 91.1 179.65 98.45 170.4 98.45 161.1 98.45 154.4 91.1 147.65 83.75 147.65 73.6 147.65 63.5 154.4 56.15 161.1 48.85 170.4 48.85 179.65 48.85 186.45 56.15 193.2 63.5 193.2 73.6 Z
M 138.1 27.4
Q 140.8 19.85 140.55 11.6 140.65 5.05 144.7 4.25 162 0 178 10.2 198.1 20.25 212.6 54.3 218.85 70.6 212.6 85.6 216.4 95.7 222.75 91.75 222 79.25 229.5 75.75 247.6 66.9 252.3 83.45 254.75 100.85 248.45 114.55 235.85 130.05 219.35 126.1 207.2 115.85 208.4 103.05 198.35 127.2 181.95 140.15 166.65 148.25 163.6 156.45 161 201.2 163.6 235.5 163.6 251.15 151.85 253
L 104.15 253
Q 92.4 251.15 92.4 235.5 95 201.2 92.4 156.45 89.35 148.25 74.05 140.15 57.7 127.2 47.6 103.05 48.8 115.85 36.65 126.1 20.15 130.05 7.6 114.55 1.25 100.85 3.7 83.45 8.45 66.9 26.5 75.75 34 79.25 33.25 91.75 39.6 95.7 43.4 85.6 37.15 70.6 43.4 54.3 57.95 20.25 78.05 10.2 94 0 111.3 4.25 115.4 5.05 115.45 11.6 115.2 19.85 117.9 27.4 122.3 39.5 127.35 39.85 127.7 39.85 128.05 39.85 128.4 39.85 128.75 39.85 129.85 39.75 130.95 39.1 134.7 36.8 138.1 27.4 Z
M 62.85 73.6
Q 62.85 83.75 69.6 91.1 76.35 98.45 85.65 98.45 94.95 98.45 101.6 91.1 108.35 83.75 108.35 73.6 108.35 63.5 101.6 56.15 94.95 48.85 85.65 48.85 76.35 48.85 69.6 56.15 62.85 63.5 62.85 73.6 Z
M 150.2 136.2
Q 150.2 144.5 144.25 150 139.2 156.45 131.6 156.45 131.25 156.45 130.95 156.45 129.75 156.45 128.75 156.45
L 127.35 156.45
Q 126.55 156.45 125.5 156.45
M 146.8 205.15
Q 149.35 212.3 146.8 219.85 139.7 226.1 130.95 227.75 129.85 227.9 128.75 228.05 128.4 228.05 128.05 228.15 127.7 228.05 127.35 228.05 117.25 226.85 109.2 219.85 105.85 212.15 109.2 205.15 118.15 200.45 127.35 199.8 127.7 199.8 128.05 199.8 128.4 199.8 128.75 199.8 129.85 199.9 130.95 200.05 138.95 201 146.8 205.15 Z"/>
</defs>

<g transform="matrix( 1, 0, 0, 1, 0,0) ">
<use xlink:href="#Layer0_0_FILL"/>

<use xlink:href="#Layer0_0_1_STROKES"/>
</g>
</svg>
