
<svg xmlns="http://www.w3.org/2000/svg" version="1.1" xmlns:xlink="http://www.w3.org/1999/xlink" preserveAspectRatio="none" x="0px" y="0px" width="256px" height="256px" viewBox="0 0 256 256">
<defs>
<radialGradient id="Gradient_1" gradientUnits="userSpaceOnUse" cx="0" cy="0" r="174.32500000000002" fx="0" fy="0" gradientTransform="matrix( 0.9999999999999999, 0, 0, 1.0000717051484296, 95.4,80.9) " spreadMethod="pad">
<stop  offset="0%" stop-color="#FFFFFF"/>

<stop  offset="100%" stop-color="#222222"/>
</radialGradient>

<g id="Layer0_0_FILL">
<path fill="url(#Gradient_1)" stroke="none" d="
M 244.75 128.8
Q 244.75 81.2 211 47.5 177.3 13.8 129.75 13.8 82.05 13.8 48.35 47.5 14.75 81.2 14.75 128.8 14.75 176.45 48.35 210.15 82.05 243.8 129.75 243.8 177.3 243.8 211 210.15 244.75 176.45 244.75 128.8 Z"/>
</g>

<path id="Layer0_0_1_STROKES" stroke="#000000" stroke-width="1" stroke-linejoin="round" stroke-linecap="round" fill="none" d="
M 244.75 128.8
Q 244.75 176.45 211 210.15 177.3 243.8 129.75 243.8 82.05 243.8 48.35 210.15 14.75 176.45 14.75 128.8 14.75 81.2 48.35 47.5 82.05 13.8 129.75 13.8 177.3 13.8 211 47.5 244.75 81.2 244.75 128.8 Z"/>
</defs>

<g transform="matrix( 1, 0, 0, 1, 0,0) ">
<use xlink:href="#Layer0_0_FILL"/>

<use xlink:href="#Layer0_0_1_STROKES"/>
</g>
</svg>
